<svg width="283" height="340" viewBox="0 0 283 340" fill="none" xmlns="http://www.w3.org/2000/svg">
<path fill-rule="evenodd" clip-rule="evenodd" d="M197.794 301.602C179.631 304.34 179.43 339.707 203.133 339.707C236.319 339.707 274.855 319.185 281.788 290.946C288.72 262.707 264.982 242.74 229.256 244.062C200.676 245.119 187.627 260.843 222.324 260.843C231.477 260.839 253.208 266.023 254.589 276.29C256.315 289.124 240.76 295.1 222.324 298.145L197.794 301.602Z" fill="#000000"/>
<path d="M35.5444 278.462C34.5283 270.096 40.4864 262.49 48.8524 261.474L103.469 254.84C111.835 253.824 119.441 259.782 120.457 268.148C121.474 276.514 115.515 284.12 107.149 285.136L52.5324 291.77C44.1664 292.786 36.5606 286.828 35.5444 278.462Z" fill="#000000"/>
<path fill-rule="evenodd" clip-rule="evenodd" d="M104.096 259.999L49.4791 266.633C43.9623 267.303 40.0334 272.319 40.7035 277.836C41.3736 283.352 46.389 287.281 51.9057 286.611L106.523 279.977C112.04 279.307 115.968 274.291 115.298 268.775C114.628 263.258 109.613 259.329 104.096 259.999ZM48.8524 261.474C40.4864 262.49 34.5283 270.096 35.5444 278.462C36.5606 286.828 44.1664 292.786 52.5324 291.77L107.149 285.136C115.515 284.12 121.474 276.514 120.457 268.148C119.441 259.782 111.835 253.824 103.469 254.84L48.8524 261.474Z" fill="#000000"/>
<path d="M232.642 278.462C233.658 270.096 227.7 262.49 219.334 261.474L164.717 254.84C156.351 253.824 148.745 259.782 147.729 268.148C146.713 276.514 152.671 284.12 161.037 285.136L215.654 291.77C224.02 292.786 231.626 286.828 232.642 278.462Z" fill="#000000"/>
<path fill-rule="evenodd" clip-rule="evenodd" d="M164.09 259.999L218.707 266.633C224.224 267.303 228.153 272.319 227.483 277.836C226.813 283.352 221.798 287.281 216.281 286.611L161.664 279.977C156.147 279.307 152.218 274.291 152.888 268.775C153.558 263.258 158.574 259.329 164.09 259.999ZM219.334 261.474C227.7 262.49 233.658 270.096 232.642 278.462C231.626 286.828 224.02 292.786 215.654 291.77L161.037 285.136C152.671 284.12 146.713 276.514 147.729 268.148C148.745 259.782 156.351 253.824 164.717 254.84L219.334 261.474Z" fill="#000000"/>
<path fill-rule="evenodd" clip-rule="evenodd" d="M220.538 210.883C225.967 191.044 228.889 169.971 228.889 148.131C228.889 117.647 223.196 88.6561 212.939 62.4287C212.932 62.4107 212.92 62.3953 212.903 62.3847C212.887 62.3738 212.874 62.3576 212.867 62.3387C203.903 37.8239 189.866 16.6485 172.371 0.775807C170.567 -0.860993 167.732 0.244665 167.469 2.66724C166.527 11.3627 166.04 20.2398 166.04 29.2593C166.04 31.3661 166.067 33.4652 166.119 35.556C166.176 37.7877 163.947 39.3951 161.82 38.7201C153.541 36.0922 144.192 34.6128 134.297 34.6128C124.401 34.6128 115.053 36.0921 106.773 38.7201C104.647 39.3951 102.418 37.7877 102.474 35.556C102.527 33.466 102.554 31.3677 102.554 29.2616C102.554 20.2421 102.067 11.3651 101.124 2.66958C100.862 0.247002 98.0263 -0.858653 96.2223 0.778146C78.7281 16.6509 64.6904 37.8262 55.7268 62.341C55.7199 62.3599 55.707 62.3761 55.6901 62.3871C55.6738 62.3976 55.6613 62.413 55.6542 62.4311C45.3975 88.6585 39.7045 117.649 39.7045 148.133C39.7045 169.972 42.6262 191.044 48.0545 210.883H220.538Z" fill="white"/>
<path d="M212.939 62.4287C223.196 88.6561 228.889 117.647 228.889 148.131C228.889 169.971 225.967 191.044 220.538 210.883H48.0545C42.6262 191.044 39.7045 169.972 39.7045 148.133C39.7045 117.649 45.3975 88.6585 55.6542 62.4311C55.6613 62.413 55.6738 62.3976 55.6901 62.3871C55.707 62.3761 55.7199 62.3599 55.7268 62.341C64.6904 37.8262 78.7281 16.6509 96.2223 0.778146C98.0263 -0.858653 100.862 0.247002 101.124 2.66958C102.067 11.3651 102.554 20.2421 102.554 29.2616C102.554 31.3677 102.527 33.466 102.474 35.556C102.418 37.7877 104.647 39.3951 106.773 38.7201C115.053 36.0921 124.401 34.6128 134.297 34.6128C144.192 34.6128 153.541 36.0922 161.82 38.7201C163.947 39.3951 166.176 37.7877 166.119 35.556C166.067 33.4652 166.04 31.3661 166.04 29.2593C166.04 20.2398 166.527 11.3627 167.469 2.66724C167.732 0.244665 170.567 -0.860993 172.371 0.775807C189.866 16.6485 203.903 37.8239 212.867 62.3387C212.874 62.3576 212.887 62.3738 212.903 62.3847C212.92 62.3953 212.932 62.4107 212.939 62.4287Z" fill="#000000"/>
<path fill-rule="evenodd" clip-rule="evenodd" d="M6.76219 111.375C7.0814 109.776 8.63662 108.738 10.2359 109.058L69.2921 120.845C70.6657 121.119 71.6576 122.321 71.6669 123.721C71.6762 125.122 70.7002 126.336 69.3304 126.629L10.2741 139.231C8.67926 139.572 7.11044 138.555 6.77009 136.96C6.42975 135.365 7.44675 133.796 9.04163 133.456L54.1128 123.838L9.0799 114.849C7.48066 114.53 6.44298 112.975 6.76219 111.375Z" fill="#000000"/>
<path fill-rule="evenodd" clip-rule="evenodd" d="M262.609 111.375C262.29 109.776 260.735 108.738 259.135 109.058L200.079 120.845C198.706 121.119 197.714 122.321 197.704 123.721C197.695 125.122 198.671 126.336 200.041 126.629L259.097 139.231C260.692 139.572 262.261 138.555 262.601 136.96C262.942 135.365 261.925 133.796 260.33 133.456L215.259 123.838L260.291 114.849C261.891 114.53 262.928 112.975 262.609 111.375Z" fill="#000000"/>
<path fill-rule="evenodd" clip-rule="evenodd" d="M4.8008 110.984C5.33622 108.302 7.94482 106.561 10.6273 107.097L69.6835 118.884C71.9874 119.344 73.6512 121.359 73.6668 123.709C73.6823 126.058 72.0453 128.095 69.7477 128.585L10.6915 141.188C8.01634 141.759 5.38493 140.053 4.81406 137.378C4.24319 134.703 5.94902 132.071 8.62415 131.5L44.2229 123.903L8.68835 116.811C6.0059 116.275 4.26539 113.667 4.8008 110.984ZM9.0799 114.849C7.48066 114.53 6.44298 112.975 6.76219 111.375C7.0814 109.776 8.63662 108.738 10.2359 109.058L69.2921 120.845C70.6657 121.119 71.6576 122.321 71.6669 123.721C71.6762 125.122 70.7002 126.336 69.3304 126.629L10.2741 139.231C8.67926 139.572 7.11044 138.555 6.77009 136.96C6.42975 135.365 7.44675 133.796 9.04163 133.456L54.1128 123.838L9.0799 114.849ZM258.744 107.097C261.426 106.561 264.035 108.302 264.57 110.984C265.106 113.667 263.365 116.275 260.683 116.811L225.148 123.903L260.747 131.5C263.422 132.071 265.128 134.703 264.557 137.378C263.986 140.053 261.355 141.759 258.68 141.188L199.623 128.585C197.326 128.095 195.689 126.058 195.704 123.709C195.72 121.359 197.384 119.344 199.688 118.884L258.744 107.097ZM260.33 133.456C261.925 133.796 262.942 135.365 262.601 136.96C262.261 138.555 260.692 139.572 259.097 139.231L200.041 126.629C198.671 126.336 197.695 125.122 197.704 123.721C197.714 122.321 198.706 121.119 200.079 120.845L259.135 109.058C260.735 108.738 262.29 109.776 262.609 111.375C262.928 112.975 261.891 114.53 260.291 114.849L215.259 123.838L260.33 133.456Z" fill="#000000"/>
<path fill-rule="evenodd" clip-rule="evenodd" d="M255.765 151.994C256.063 149.246 253.56 147.026 250.869 147.653L142.425 172.903C140.725 173.299 139.49 174.743 139.339 176.456L135.528 177.408C135.053 177.526 134.555 177.526 134.079 177.408L130.273 176.457C130.121 174.744 128.885 173.299 127.183 172.903L18.6295 147.653C15.9364 147.026 13.4308 149.246 13.7286 151.994L25.283 258.645C25.4589 260.268 26.601 261.623 28.1714 262.072L125.171 289.776C126.759 290.23 128.342 289.664 129.318 288.535L132.8 289.973C134.246 290.571 135.875 290.549 137.304 289.913L140.323 288.57C141.3 289.676 142.866 290.225 144.435 289.776L241.337 262.072C242.906 261.623 244.047 260.268 244.223 258.645L255.765 151.994Z" fill="#000000"/>
<path fill-rule="evenodd" clip-rule="evenodd" d="M144.938 181.242L136.982 183.229C135.552 183.586 134.056 183.586 132.625 183.229L124.672 181.243L124.423 178.422L19.9952 154.13L31.1041 256.669L125.601 283.659L127.608 281.336L134.978 284.381L141.905 281.3L143.993 283.662L238.401 256.671L249.499 154.132L145.188 178.421L144.938 181.242ZM140.323 288.57C141.3 289.676 142.866 290.225 144.435 289.776L241.337 262.072C242.906 261.623 244.047 260.268 244.223 258.645L255.765 151.994C256.063 149.246 253.56 147.026 250.869 147.653L142.425 172.903C140.725 173.299 139.49 174.743 139.339 176.456L135.528 177.408C135.053 177.526 134.555 177.526 134.079 177.408L130.273 176.457C130.121 174.744 128.885 173.299 127.183 172.903L18.6295 147.653C15.9364 147.026 13.4308 149.246 13.7286 151.994L25.283 258.645C25.4589 260.268 26.601 261.623 28.1714 262.072L125.171 289.776C126.759 290.23 128.342 289.664 129.318 288.535L132.8 289.973C134.246 290.571 135.875 290.549 137.304 289.913L140.323 288.57Z" fill="white"/>
<path fill-rule="evenodd" clip-rule="evenodd" d="M28.5009 190.94C19.8447 187.929 10.8986 191.032 7.26598 201.473C3.4354 212.483 8.72165 219.9 17.3778 222.912C21.2264 224.251 36.1017 219.596 38.6127 212.379C40.8598 205.92 34.0887 193.822 28.5009 190.94Z" fill="#000000"/>
<path fill-rule="evenodd" clip-rule="evenodd" d="M30.8736 185.413L31.2512 185.607C35.69 187.897 39.5095 192.963 41.8541 197.62C43.0993 200.093 44.1234 202.825 44.6561 205.563C45.1755 208.233 45.3163 211.37 44.2795 214.35C43.1333 217.645 40.7831 220.156 38.4995 221.963C36.1576 223.816 33.4355 225.286 30.8229 226.384C28.1999 227.487 25.4836 228.302 23.0446 228.748C21.8253 228.97 20.5822 229.118 19.3939 229.138C18.2902 229.157 16.8377 229.076 15.4063 228.578C10.0363 226.71 5.1516 223.274 2.3459 218.016C-0.514321 212.656 -0.754022 206.265 1.59914 199.501C3.87895 192.948 8.05488 188.167 13.5292 185.694C18.9312 183.253 24.9487 183.351 30.4724 185.273L30.8736 185.413ZM7.26598 201.473C10.8986 191.032 19.8447 187.929 28.5009 190.94C34.0887 193.822 40.8598 205.92 38.6127 212.379C36.1017 219.596 21.2264 224.251 17.3778 222.912C8.72165 219.9 3.4354 212.483 7.26598 201.473Z" fill="white"/>
<path fill-rule="evenodd" clip-rule="evenodd" d="M240.018 190.94C248.674 187.929 257.62 191.032 261.253 201.473C265.083 212.483 259.797 219.9 251.141 222.912C247.292 224.251 232.417 219.596 229.906 212.379C227.659 205.92 234.43 193.822 240.018 190.94Z" fill="#000000"/>
<path fill-rule="evenodd" clip-rule="evenodd" d="M237.645 185.413L237.268 185.607C232.829 187.897 229.009 192.963 226.665 197.62C225.419 200.093 224.395 202.825 223.863 205.563C223.343 208.233 223.203 211.37 224.239 214.35C225.385 217.645 227.736 220.156 230.019 221.963C232.361 223.816 235.083 225.286 237.696 226.384C240.319 227.487 243.035 228.302 245.474 228.748C246.694 228.97 247.937 229.118 249.125 229.138C250.229 229.157 251.681 229.076 253.113 228.578C258.483 226.71 263.367 223.274 266.173 218.016C269.033 212.656 269.273 206.265 266.92 199.501C264.64 192.948 260.464 188.167 254.99 185.694C249.588 183.253 243.57 183.351 238.046 185.273L237.645 185.413ZM261.253 201.473C257.62 191.032 248.674 187.929 240.018 190.94C234.43 193.822 227.659 205.92 229.906 212.379C232.417 219.596 247.292 224.251 251.141 222.912C259.797 219.9 265.083 212.483 261.253 201.473Z" fill="white"/>
<path d="M119.704 99.5C119.704 112.479 107.392 123 92.2045 123C77.0166 123 64.7045 112.479 64.7045 99.5C64.7045 86.5213 77.0166 76 92.2045 76C107.392 76 119.704 86.5213 119.704 99.5Z" fill="white"/>
<path d="M108.902 99.565C108.587 104.043 105.596 107.13 102.803 107.13C100.011 107.13 97.1017 103.854 96.7045 99.565C96.7045 95.387 97.7326 92 102.803 92C107.547 92 108.902 95.387 108.902 99.565Z" fill="#000000"/>
<path d="M149.704 99.5C149.704 112.479 162.017 123 177.204 123C192.392 123 204.704 112.479 204.704 99.5C204.704 86.5213 192.392 76 177.204 76C162.017 76 149.704 86.5213 149.704 99.5Z" fill="white"/>
<path d="M160.507 99.565C160.822 104.043 163.813 107.13 166.606 107.13C169.398 107.13 172.307 103.854 172.704 99.565C172.704 95.387 171.676 92 166.606 92C161.862 92 160.507 95.387 160.507 99.565Z" fill="#000000"/>
<path d="M130.777 150.598C133.031 152.551 136.378 152.551 138.632 150.598L144.19 145.785C148.389 142.149 145.817 135.25 140.262 135.25H129.147C123.592 135.25 121.02 142.149 125.219 145.785L130.777 150.598Z" fill="white"/>
</svg>
