<svg width="269" height="294" viewBox="0 0 269 294" fill="none" xmlns="http://www.w3.org/2000/svg">
<path d="M35.84 278.462C34.8238 270.096 40.782 262.491 49.1479 261.474L103.765 254.84C112.131 253.824 119.737 259.782 120.753 268.148V268.148C121.769 276.514 115.811 284.12 107.445 285.136L52.8279 291.77C44.4619 292.787 36.8562 286.828 35.84 278.462V278.462Z" fill="#331200"/>
<path fill-rule="evenodd" clip-rule="evenodd" d="M104.392 259.999L49.7746 266.634C44.2579 267.304 40.3289 272.319 40.999 277.836C41.6691 283.352 46.6845 287.281 52.2012 286.611L106.818 279.977C112.335 279.307 116.264 274.292 115.594 268.775C114.924 263.258 109.908 259.329 104.392 259.999ZM49.1479 261.474C40.782 262.491 34.8238 270.096 35.84 278.462C36.8562 286.828 44.4619 292.787 52.8279 291.77L107.445 285.136C115.811 284.12 121.769 276.514 120.753 268.148C119.737 259.782 112.131 253.824 103.765 254.84L49.1479 261.474Z" fill="#331200"/>
<path d="M232.937 278.462C233.954 270.096 227.995 262.491 219.629 261.474L165.012 254.84C156.646 253.824 149.041 259.782 148.024 268.148V268.148C147.008 276.514 152.966 284.12 161.332 285.136L215.949 291.77C224.315 292.787 231.921 286.828 232.937 278.462V278.462Z" fill="#331200"/>
<path fill-rule="evenodd" clip-rule="evenodd" d="M164.386 259.999L219.003 266.634C224.519 267.304 228.448 272.319 227.778 277.836C227.108 283.352 222.093 287.281 216.576 286.611L161.959 279.977C156.442 279.307 152.513 274.292 153.183 268.775C153.854 263.258 158.869 259.329 164.386 259.999ZM219.629 261.474C227.995 262.491 233.954 270.096 232.937 278.462C231.921 286.828 224.315 292.787 215.949 291.77L161.332 285.136C152.966 284.12 147.008 276.514 148.024 268.148C149.041 259.782 156.646 253.824 165.012 254.84L219.629 261.474Z" fill="#331200"/>
<path fill-rule="evenodd" clip-rule="evenodd" d="M220.834 210.883C226.263 191.044 229.185 169.971 229.185 148.131C229.185 117.647 223.492 88.6561 213.235 62.4287C213.228 62.4107 213.215 62.3953 213.199 62.3847C213.182 62.3738 213.169 62.3576 213.162 62.3387C204.199 37.8239 190.161 16.6485 172.667 0.775807C170.863 -0.860993 168.028 0.244665 167.765 2.66724C166.822 11.3627 166.336 20.2398 166.336 29.2593C166.336 31.3661 166.362 33.4652 166.415 35.556C166.471 37.7877 164.242 39.3951 162.116 38.7201C153.837 36.0922 144.488 34.6128 134.592 34.6128C124.697 34.6128 115.348 36.0921 107.069 38.7201C104.942 39.3951 102.714 37.7877 102.77 35.556C102.823 33.466 102.849 31.3677 102.849 29.2616C102.849 20.2421 102.362 11.3651 101.42 2.66958C101.157 0.247002 98.3219 -0.858653 96.5178 0.778146C79.0236 16.6509 64.9859 37.8262 56.0223 62.341C56.0154 62.3599 56.0025 62.3761 55.9857 62.3871C55.9694 62.3976 55.9568 62.413 55.9498 62.4311C45.6931 88.6585 40 117.649 40 148.133C40 169.972 42.9218 191.044 48.35 210.883H220.834Z" fill="white"/>
<path d="M213.235 62.4287C223.492 88.6562 229.185 117.647 229.185 148.131C229.185 169.971 226.263 191.044 220.834 210.883H48.35C42.9218 191.044 40 169.972 40 148.133C40 117.649 45.6931 88.6585 55.9498 62.4311C55.9568 62.413 55.9694 62.3976 55.9857 62.3871C56.0025 62.3761 56.0154 62.3599 56.0223 62.341C64.9859 37.8262 79.0236 16.6509 96.5178 0.778146C98.3219 -0.858653 101.157 0.247003 101.42 2.66958C102.362 11.3651 102.849 20.2421 102.849 29.2616C102.849 31.3677 102.823 33.466 102.77 35.556C102.714 37.7877 104.942 39.3951 107.069 38.7201C115.348 36.0921 124.697 34.6128 134.592 34.6128C144.488 34.6128 153.837 36.0922 162.116 38.7201C164.242 39.3951 166.471 37.7877 166.415 35.556C166.362 33.4652 166.336 31.3661 166.336 29.2593C166.336 20.2398 166.822 11.3627 167.765 2.66724C168.028 0.244665 170.863 -0.860993 172.667 0.775807C190.161 16.6485 204.199 37.8239 213.162 62.3387C213.169 62.3576 213.182 62.3738 213.199 62.3847C213.215 62.3953 213.228 62.4107 213.235 62.4287Z" fill="#331200"/>
<path d="M76.1577 49.9162C76.0398 49.8602 75.9771 49.7292 76.0077 49.6023C78.5916 38.8807 83.7104 29.1051 90.7176 20.9026C91.3938 20.1111 92.6488 20.5581 92.6739 21.5988C92.7927 26.5208 92.5173 33.0322 91.2014 39.7679C89.0506 50.7767 80.3167 51.1331 76.1979 49.9316C76.1839 49.9275 76.1709 49.9224 76.1577 49.9162V49.9162Z" fill="#331200"/>
<path d="M193.01 49.9162C193.128 49.8602 193.19 49.7292 193.16 49.6023C190.576 38.8807 185.457 29.1051 178.45 20.9026C177.774 20.1111 176.519 20.5581 176.494 21.5988C176.375 26.5208 176.65 33.0322 177.966 39.7679C180.117 50.7767 188.851 51.1331 192.97 49.9316C192.984 49.9275 192.997 49.9224 193.01 49.9162V49.9162Z" fill="#331200"/>
<path fill-rule="evenodd" clip-rule="evenodd" d="M7.05773 111.375C7.37694 109.776 8.93215 108.738 10.5314 109.058L69.5877 120.845C70.9612 121.119 71.9532 122.321 71.9624 123.721C71.9717 125.122 70.9957 126.336 69.6259 126.629L10.5697 139.231C8.97479 139.572 7.40598 138.555 7.06563 136.96C6.72528 135.365 7.74228 133.796 9.33717 133.456L54.4083 123.838L9.37544 114.849C7.77619 114.53 6.73852 112.975 7.05773 111.375Z" fill="#331200"/>
<path fill-rule="evenodd" clip-rule="evenodd" d="M262.905 111.375C262.585 109.776 261.03 108.738 259.431 109.058L200.375 120.845C199.001 121.119 198.009 122.321 198 123.721C197.991 125.122 198.967 126.336 200.336 126.629L259.393 139.231C260.988 139.572 262.556 138.555 262.897 136.96C263.237 135.365 262.22 133.796 260.625 133.456L215.554 123.838L260.587 114.849C262.186 114.53 263.224 112.975 262.905 111.375Z" fill="#331200"/>
<path fill-rule="evenodd" clip-rule="evenodd" d="M5.09634 110.984C5.63176 108.302 8.24035 106.561 10.9228 107.097L69.9791 118.884C72.2829 119.344 73.9468 121.359 73.9623 123.709C73.9779 126.058 72.3408 128.095 70.0433 128.585L10.987 141.188C8.31187 141.759 5.68047 140.053 5.1096 137.378C4.53872 134.703 6.24456 132.071 8.91969 131.5L44.5185 123.903L8.98389 116.811C6.30144 116.275 4.56092 113.667 5.09634 110.984ZM9.37536 114.849C7.77612 114.53 6.73844 112.975 7.05765 111.376C7.37686 109.777 8.93208 108.739 10.5313 109.058L69.5876 120.846C70.9611 121.12 71.9531 122.321 71.9623 123.722C71.9716 125.122 70.9957 126.337 69.6259 126.629L10.5696 139.232C8.97472 139.572 7.4059 138.555 7.06555 136.96C6.72521 135.365 7.74221 133.797 9.33709 133.456L54.4082 123.838L9.37536 114.849ZM259.039 107.097C261.722 106.561 264.331 108.302 264.866 110.984C265.401 113.667 263.661 116.275 260.978 116.811L225.444 123.903L261.043 131.5C263.718 132.071 265.424 134.703 264.853 137.378C264.282 140.053 261.65 141.759 258.975 141.188L199.919 128.585C197.621 128.095 195.984 126.058 196 123.709C196.015 121.359 197.679 119.344 199.983 118.884L259.039 107.097ZM260.625 133.456C262.22 133.797 263.237 135.365 262.897 136.96C262.556 138.555 260.988 139.572 259.393 139.232L200.336 126.629C198.967 126.337 197.991 125.122 198 123.722C198.009 122.321 199.001 121.12 200.375 120.846L259.431 109.058C261.03 108.739 262.585 109.777 262.905 111.376C263.224 112.975 262.186 114.53 260.587 114.849L215.554 123.838L260.625 133.456Z" fill="#331200"/>
<mask id="path-11-inside-1_507_1265" fill="white">
<path fill-rule="evenodd" clip-rule="evenodd" d="M256.061 151.994C256.358 149.246 253.855 147.026 251.165 147.653L142.72 172.903C141.021 173.299 139.786 174.743 139.634 176.456L135.824 177.408C135.348 177.526 134.85 177.526 134.375 177.408L130.568 176.457C130.417 174.744 129.181 173.299 127.479 172.903L18.9251 147.653C16.2319 147.026 13.7264 149.246 14.0241 151.994L25.5785 258.645C25.7544 260.268 26.8965 261.623 28.4669 262.072L125.466 289.776C127.054 290.23 128.638 289.664 129.614 288.535L133.096 289.973C134.541 290.571 136.171 290.549 137.6 289.913L140.619 288.57C141.596 289.676 143.161 290.225 144.731 289.776L241.633 262.072C243.201 261.623 244.342 260.268 244.518 258.645L256.061 151.994Z"/>
</mask>
<path fill-rule="evenodd" clip-rule="evenodd" d="M256.061 151.994C256.358 149.246 253.855 147.026 251.165 147.653L142.72 172.903C141.021 173.299 139.786 174.743 139.634 176.456L135.824 177.408C135.348 177.526 134.85 177.526 134.375 177.408L130.568 176.457C130.417 174.744 129.181 173.299 127.479 172.903L18.9251 147.653C16.2319 147.026 13.7264 149.246 14.0241 151.994L25.5785 258.645C25.7544 260.268 26.8965 261.623 28.4669 262.072L125.466 289.776C127.054 290.23 128.638 289.664 129.614 288.535L133.096 289.973C134.541 290.571 136.171 290.549 137.6 289.913L140.619 288.57C141.596 289.676 143.161 290.225 144.731 289.776L241.633 262.072C243.201 261.623 244.342 260.268 244.518 258.645L256.061 151.994Z" fill="#F07000"/>
<path d="M251.165 147.653L249.804 141.809L249.804 141.809L251.165 147.653ZM256.061 151.994L262.026 152.639L262.026 152.639L256.061 151.994ZM142.72 172.903L141.359 167.06L141.359 167.06L142.72 172.903ZM139.634 176.456L141.088 182.277L145.234 181.242L145.611 176.985L139.634 176.456ZM135.824 177.408L134.37 171.586L134.37 171.586L135.824 177.408ZM134.375 177.408L135.829 171.586L135.829 171.586L134.375 177.408ZM130.568 176.457L124.591 176.985L124.968 181.243L129.114 182.278L130.568 176.457ZM127.479 172.903L128.838 167.06L128.838 167.06L127.479 172.903ZM18.9251 147.653L17.5657 153.497L17.5657 153.497L18.9251 147.653ZM14.0241 151.994L19.9892 151.348L19.9892 151.348L14.0241 151.994ZM25.5785 258.645L19.6135 259.291L19.6135 259.291L25.5785 258.645ZM28.4669 262.072L26.8191 267.841L26.8191 267.841L28.4669 262.072ZM125.466 289.776L127.114 284.007L127.114 284.007L125.466 289.776ZM129.614 288.535L131.905 282.989L127.903 281.336L125.073 284.612L129.614 288.535ZM133.096 289.973L135.387 284.428L135.387 284.428L133.096 289.973ZM137.6 289.913L140.038 295.396L140.038 295.395L137.6 289.913ZM140.619 288.57L145.115 284.597L142.201 281.3L138.18 283.088L140.619 288.57ZM144.731 289.776L143.081 284.007L143.081 284.007L144.731 289.776ZM241.633 262.072L243.282 267.841L243.282 267.841L241.633 262.072ZM244.518 258.645L238.553 257.999L238.553 257.999L244.518 258.645ZM252.525 153.496C251.184 153.809 249.949 152.702 250.096 151.348L262.026 152.639C262.767 145.789 256.526 140.244 249.804 141.809L252.525 153.496ZM144.081 178.747L252.525 153.496L249.804 141.809L141.359 167.06L144.081 178.747ZM145.611 176.985C145.536 177.834 144.928 178.55 144.081 178.747L141.359 167.06C137.114 168.048 134.036 171.653 133.658 175.927L145.611 176.985ZM137.278 183.229L141.088 182.277L138.18 170.635L134.37 171.586L137.278 183.229ZM132.921 183.229C134.351 183.586 135.847 183.586 137.278 183.229L134.37 171.586C134.849 171.467 135.35 171.467 135.829 171.586L132.921 183.229ZM129.114 182.278L132.921 183.229L135.829 171.586L132.022 170.636L129.114 182.278ZM136.545 175.928C136.166 171.65 133.084 168.047 128.838 167.06L126.12 178.747C125.277 178.552 124.667 177.838 124.591 176.985L136.545 175.928ZM128.838 167.06L20.2845 141.809L17.5657 153.497L126.12 178.747L128.838 167.06ZM20.2845 141.809C13.5687 140.246 7.31591 145.781 8.05903 152.64L19.9892 151.348C20.1369 152.71 18.8952 153.806 17.5657 153.497L20.2845 141.809ZM8.05903 152.64L19.6135 259.291L31.5436 257.999L19.9892 151.348L8.05903 152.64ZM19.6135 259.291C20.0523 263.342 22.9022 266.722 26.8191 267.841L30.1147 256.302C30.8908 256.524 31.4565 257.194 31.5436 257.999L19.6135 259.291ZM26.8191 267.841L123.819 295.545L127.114 284.007L30.1147 256.302L26.8191 267.841ZM123.819 295.545C127.792 296.68 131.748 295.243 134.154 292.457L125.073 284.612C125.528 284.086 126.317 283.779 127.114 284.007L123.819 295.545ZM135.387 284.428L131.905 282.989L127.322 294.08L130.804 295.519L135.387 284.428ZM135.161 284.431C135.234 284.399 135.314 284.398 135.387 284.428L130.804 295.519C133.768 296.743 137.108 296.699 140.038 295.396L135.161 284.431ZM138.18 283.088L135.161 284.431L140.038 295.395L143.057 294.053L138.18 283.088ZM143.081 284.007C143.874 283.781 144.658 284.081 145.115 284.597L136.123 292.544C138.533 295.271 142.449 296.669 146.38 295.545L143.081 284.007ZM239.983 256.303L143.081 284.007L146.38 295.545L243.282 267.841L239.983 256.303ZM238.553 257.999C238.64 257.198 239.203 256.526 239.983 256.303L243.282 267.841C247.2 266.72 250.045 263.338 250.483 259.29L238.553 257.999ZM250.096 151.348L238.553 257.999L250.483 259.29L262.026 152.639L250.096 151.348Z" fill="#F3F4F6" mask="url(#path-11-inside-1_507_1265)"/>
<path d="M30.1715 188.274L29.9828 188.177L29.7822 188.107C24.8563 186.393 19.6473 186.355 15.06 188.428C10.4365 190.517 6.77617 194.6 4.7281 200.487C2.59387 206.622 2.89568 212.121 5.28817 216.604C7.6534 221.037 11.8385 224.058 16.6876 225.745C17.6438 226.078 18.6968 226.155 19.6386 226.139C20.6227 226.122 21.6976 225.998 22.801 225.797C25.008 225.394 27.5155 224.645 29.9554 223.619C32.3901 222.595 34.8588 221.252 36.9336 219.61C38.9793 217.992 40.8547 215.914 41.7416 213.364C42.5409 211.067 42.4696 208.515 42.0068 206.136C41.5374 203.724 40.6202 201.254 39.47 198.969C37.2425 194.544 33.7879 190.139 30.1715 188.274Z" fill="#331200" stroke="#F3F4F6" stroke-width="6"/>
<path d="M238.938 188.274L239.127 188.177L239.328 188.107C244.254 186.393 249.463 186.355 254.05 188.428C258.673 190.517 262.334 194.6 264.382 200.487C266.516 206.622 266.214 212.121 263.822 216.604C261.456 221.037 257.271 224.058 252.422 225.745C251.466 226.078 250.413 226.155 249.471 226.139C248.487 226.122 247.412 225.998 246.309 225.797C244.102 225.394 241.594 224.645 239.154 223.619C236.72 222.595 234.251 221.252 232.176 219.61C230.131 217.992 228.255 215.914 227.368 213.364C226.569 211.067 226.64 208.515 227.103 206.136C227.572 203.724 228.49 201.254 229.64 198.969C231.867 194.544 235.322 190.139 238.938 188.274Z" fill="#331200" stroke="#F3F4F6" stroke-width="6"/>
<ellipse cx="92.5" cy="99.5" rx="27.5" ry="23.5" fill="white"/>
<path d="M109.198 99.565C108.882 104.043 105.891 107.13 103.099 107.13C100.307 107.13 97.3972 103.854 97 99.565C97 95.387 98.0282 92 103.099 92C107.843 92 109.198 95.387 109.198 99.565Z" fill="#331200"/>
<ellipse cx="27.5" cy="23.5" rx="27.5" ry="23.5" transform="matrix(-1 0 0 1 205 76)" fill="white"/>
<path d="M160.802 99.565C161.118 104.043 164.109 107.13 166.901 107.13C169.693 107.13 172.603 103.854 173 99.565C173 95.387 171.972 92 166.901 92C162.157 92 160.802 95.387 160.802 99.565Z" fill="#331200"/>
<path d="M131.072 150.598C133.327 152.551 136.673 152.551 138.928 150.598L144.485 145.786C148.685 142.149 146.113 135.25 140.557 135.25H129.443C123.887 135.25 121.315 142.149 125.515 145.786L131.072 150.598Z" fill="white"/>
</svg>
