<svg width="281" height="325" viewBox="0 0 281 325" fill="none" xmlns="http://www.w3.org/2000/svg">
<path d="M258.902 304.199C258.902 315.48 205.677 324.625 140.02 324.625C74.3624 324.625 21.1367 315.48 21.1367 304.199C21.1367 292.918 74.3624 283.773 140.02 283.773C205.677 283.773 258.902 292.918 258.902 304.199Z" fill="#180700"/>
<path d="M30.2873 301.891C29.1708 292.698 35.7174 284.342 44.9095 283.225L104.92 275.936C114.113 274.819 122.469 281.366 123.586 290.558V290.558C124.702 299.75 118.156 308.107 108.964 309.223L48.9529 316.513C39.7607 317.629 31.4038 311.083 30.2873 301.891V301.891Z" fill="white"/>
<path fill-rule="evenodd" clip-rule="evenodd" d="M105.609 281.604L45.5981 288.894C39.5365 289.63 35.2195 295.141 35.9558 301.202C36.6921 307.264 42.2028 311.581 48.2643 310.844L108.275 303.555C114.337 302.819 118.654 297.308 117.917 291.246C117.181 285.185 111.67 280.868 105.609 281.604ZM44.9095 283.225C35.7174 284.342 29.1708 292.698 30.2873 301.891C31.4038 311.083 39.7607 317.629 48.9529 316.513L108.964 309.223C118.156 308.107 124.702 299.75 123.586 290.558C122.469 281.366 114.113 274.819 104.92 275.936L44.9095 283.225Z" fill="#180700"/>
<path d="M246.849 301.891C247.966 292.698 241.419 284.342 232.227 283.225L172.216 275.936C163.024 274.819 154.667 281.366 153.551 290.558V290.558C152.434 299.75 158.981 308.107 168.173 309.223L228.184 316.513C237.376 317.629 245.733 311.083 246.849 301.891V301.891Z" fill="white"/>
<path fill-rule="evenodd" clip-rule="evenodd" d="M171.528 281.604L231.539 288.894C237.6 289.63 241.917 295.141 241.181 301.202C240.445 307.264 234.934 311.581 228.872 310.844L168.862 303.555C162.8 302.819 158.483 297.308 159.219 291.246C159.956 285.185 165.466 280.868 171.528 281.604ZM232.227 283.225C241.419 284.342 247.966 292.698 246.849 301.891C245.733 311.083 237.376 317.629 228.184 316.513L168.173 309.223C158.981 308.107 152.434 299.75 153.551 290.558C154.667 281.366 163.024 274.819 172.216 275.936L232.227 283.225Z" fill="#180700"/>
<path fill-rule="evenodd" clip-rule="evenodd" d="M234.774 231.709C240.739 209.91 243.95 186.756 243.95 162.76C243.95 129.265 237.694 97.4114 226.425 68.5939C226.417 68.5741 226.403 68.5572 226.385 68.5456C226.367 68.5335 226.353 68.5157 226.345 68.495C216.496 41.5592 201.072 18.2927 181.85 0.852423C179.868 -0.946021 176.753 0.268827 176.465 2.93065C175.429 12.4849 174.894 22.2386 174.894 32.1488C174.894 34.4637 174.923 36.7701 174.981 39.0673C175.043 41.5195 172.594 43.2856 170.257 42.5439C161.161 39.6565 150.889 38.031 140.016 38.031C129.143 38.031 118.871 39.6564 109.774 42.5439C107.438 43.2855 104.989 41.5195 105.051 39.0673C105.109 36.7709 105.138 34.4654 105.138 32.1514C105.138 22.2411 104.603 12.4874 103.567 2.93321C103.279 0.271395 100.164 -0.943449 98.1813 0.854993C78.9594 18.2952 63.5354 41.5618 53.6867 68.4975C53.6791 68.5183 53.6649 68.5361 53.6464 68.5481C53.6285 68.5597 53.6147 68.5766 53.6069 68.5965C42.3373 97.414 36.082 129.267 36.082 162.762C36.082 186.758 39.2923 209.911 45.2567 231.709H234.774Z" fill="white"/>
<path fill-rule="evenodd" clip-rule="evenodd" d="M226.425 68.5939C237.694 97.4114 243.95 129.265 243.95 162.76C243.95 186.756 240.739 209.91 234.774 231.709H45.2567C39.2923 209.911 36.082 186.758 36.082 162.762C36.082 129.267 42.3373 97.414 53.6069 68.5965C53.6147 68.5766 53.6285 68.5597 53.6464 68.5481C53.6649 68.5361 53.6791 68.5183 53.6867 68.4975C63.5354 41.5618 78.9594 18.2952 98.1813 0.854993C100.164 -0.943449 103.279 0.271395 103.567 2.93321C104.603 12.4874 105.138 22.2411 105.138 32.1514C105.138 34.4654 105.109 36.7709 105.051 39.0673C104.989 41.5195 107.438 43.2855 109.774 42.5439C118.871 39.6564 129.143 38.031 140.016 38.031C150.889 38.031 161.161 39.6565 170.257 42.5439C172.594 43.2856 175.043 41.5195 174.981 39.0673C174.923 36.7701 174.894 34.4637 174.894 32.1488C174.894 22.2386 175.429 12.4849 176.465 2.93065C176.753 0.268827 179.868 -0.946021 181.85 0.852423C201.072 18.2927 216.496 41.5592 226.345 68.495C226.353 68.5157 226.367 68.5335 226.385 68.5456C226.403 68.5572 226.417 68.5741 226.425 68.5939ZM221.307 71.1797C232.194 99.2023 238.243 130.174 238.243 162.76C238.243 184.708 235.499 205.923 230.381 225.998H49.6506C44.533 205.924 41.7891 184.71 41.7891 162.762C41.7891 130.176 47.8381 99.2049 58.7249 71.1822C58.8479 70.9498 58.9554 70.7085 59.0463 70.4597C67.9692 46.0562 81.5739 24.8538 98.3825 8.49918C99.0749 16.2613 99.4307 24.1532 99.4307 32.1514C99.4307 34.4174 99.4022 36.6749 99.3455 38.9233C99.1803 45.475 105.596 49.8614 111.5 47.9875C120.015 45.2848 129.703 43.7419 140.016 43.7419C150.329 43.7419 160.017 45.2848 168.532 47.9875C174.435 49.8614 180.852 45.4749 180.686 38.9233C180.63 36.674 180.601 34.4157 180.601 32.1488C180.601 24.1506 180.957 16.2587 181.649 8.49661C198.458 24.8509 212.062 46.0529 220.985 70.4558C221.076 70.7051 221.184 70.9469 221.307 71.1797ZM58.9215 70.6778C58.9212 70.6787 58.9208 70.6797 58.9204 70.6806C58.9208 70.6797 58.9212 70.6787 58.9215 70.6778ZM56.7524 73.3392C56.7582 73.3354 56.7639 73.3317 56.7697 73.3279C56.7639 73.3317 56.7582 73.3354 56.7524 73.3392Z" fill="#180700"/>
<path fill-rule="evenodd" clip-rule="evenodd" d="M226.425 68.5939C237.694 97.4114 243.95 129.265 243.95 162.76C243.95 186.756 240.739 209.91 234.774 231.709H45.2567C39.2923 209.911 36.082 186.758 36.082 162.762C36.082 129.267 42.3373 97.414 53.6069 68.5965C53.6147 68.5766 53.6285 68.5597 53.6464 68.5481C53.6649 68.5361 53.6791 68.5183 53.6867 68.4975C63.5354 41.5618 78.9594 18.2952 98.1813 0.854993C100.164 -0.943449 103.279 0.271395 103.567 2.93321C104.603 12.4874 105.138 22.2411 105.138 32.1514C105.138 34.4654 105.109 36.7709 105.051 39.0673C104.989 41.5195 107.438 43.2855 109.774 42.5439C118.871 39.6564 129.143 38.031 140.016 38.031C150.889 38.031 161.161 39.6565 170.257 42.5439C172.594 43.2856 175.043 41.5195 174.981 39.0673C174.923 36.7701 174.894 34.4637 174.894 32.1488C174.894 22.2386 175.429 12.4849 176.465 2.93065C176.753 0.268827 179.868 -0.946021 181.85 0.852423C201.072 18.2927 216.496 41.5592 226.345 68.495C226.353 68.5157 226.367 68.5335 226.385 68.5456C226.403 68.5572 226.417 68.5741 226.425 68.5939ZM221.307 71.1797C232.194 99.2023 238.243 130.174 238.243 162.76C238.243 184.708 235.499 205.923 230.381 225.998H49.6506C44.533 205.924 41.7891 184.71 41.7891 162.762C41.7891 130.176 47.8381 99.2049 58.7249 71.1822C58.8479 70.9498 58.9554 70.7085 59.0463 70.4597C67.9692 46.0562 81.5739 24.8538 98.3825 8.49918C99.0749 16.2613 99.4307 24.1532 99.4307 32.1514C99.4307 34.4174 99.4022 36.6749 99.3455 38.9233C99.1803 45.475 105.596 49.8614 111.5 47.9875C120.015 45.2848 129.703 43.7419 140.016 43.7419C150.329 43.7419 160.017 45.2848 168.532 47.9875C174.435 49.8614 180.852 45.4749 180.686 38.9233C180.63 36.674 180.601 34.4157 180.601 32.1488C180.601 24.1506 180.957 16.2587 181.649 8.49661C198.458 24.8509 212.062 46.0529 220.985 70.4558C221.076 70.7051 221.184 70.9469 221.307 71.1797ZM58.9215 70.6778C58.9212 70.6787 58.9208 70.6797 58.9204 70.6806C58.9208 70.6797 58.9212 70.6787 58.9215 70.6778ZM56.7524 73.3392C56.7582 73.3354 56.7639 73.3317 56.7697 73.3279C56.7639 73.3317 56.7582 73.3354 56.7524 73.3392Z" fill="#180700"/>
<path fill-rule="evenodd" clip-rule="evenodd" d="M173.454 203.646C152.685 204.397 130.112 202.203 106.936 196.786C114.836 180.13 128.267 169.727 146.941 175.526C158.196 179.021 168.143 190.403 173.454 203.646Z" fill="#FFEED2"/>
<path d="M75.8022 54.8457C75.6727 54.7842 75.6038 54.6402 75.6374 54.5008C78.4765 42.7204 84.1008 31.9794 91.8 22.9669C92.5429 22.0972 93.9219 22.5884 93.9495 23.7318C94.0799 29.1398 93.7774 36.2944 92.3315 43.6952C89.9683 55.7912 80.3719 56.1828 75.8463 54.8626C75.831 54.8581 75.8166 54.8526 75.8022 54.8457V54.8457Z" fill="#180700"/>
<path d="M204.194 54.8457C204.323 54.7842 204.392 54.6402 204.359 54.5008C201.52 42.7204 195.895 31.9794 188.196 22.9669C187.453 22.0972 186.074 22.5884 186.047 23.7318C185.916 29.1398 186.219 36.2944 187.665 43.6952C190.028 55.7912 199.624 56.1828 204.15 54.8626C204.165 54.8581 204.179 54.8526 204.194 54.8457V54.8457Z" fill="#180700"/>
<path fill-rule="evenodd" clip-rule="evenodd" d="M136.138 133.039C136.036 132.983 135.935 132.924 135.835 132.862C130.868 129.791 126.817 125.594 124.134 120.677C122.104 116.956 124.053 112.444 128.098 111.17C131.708 110.032 135.588 109.414 139.627 109.414C143.656 109.414 147.526 110.029 151.129 111.162C155.175 112.433 157.128 116.945 155.098 120.667C152.461 125.504 148.502 129.644 143.648 132.702C144.242 134.401 144.978 135.914 145.811 137.196C148.038 140.625 150.503 141.85 152.457 141.85C154.411 141.85 156.877 140.625 159.103 137.196C160.014 135.793 160.81 134.115 161.429 132.22C161.809 131.058 162.858 130.216 164.081 130.216C165.754 130.216 167.015 131.754 166.521 133.352C164.023 141.448 158.664 147.044 152.457 147.044C147.334 147.044 142.79 143.232 139.953 137.35C137.117 143.232 132.573 147.044 127.45 147.044C121.243 147.044 115.884 141.448 113.385 133.352C112.892 131.754 114.153 130.216 115.826 130.216C117.049 130.216 118.098 131.058 118.478 132.22C119.097 134.115 119.893 135.793 120.804 137.196C123.03 140.625 125.496 141.85 127.45 141.85C129.403 141.85 131.869 140.625 134.096 137.196C134.873 135.999 135.567 134.601 136.138 133.039Z" fill="#180700"/>
<path fill-rule="evenodd" clip-rule="evenodd" d="M10.3681 119.641C10.7188 117.884 12.4277 116.744 14.1848 117.095L79.0732 130.046C80.5824 130.348 81.6723 131.668 81.6825 133.207C81.6927 134.745 80.6204 136.08 79.1153 136.401L14.2269 150.248C12.4745 150.622 10.7508 149.505 10.3768 147.752C10.0028 146 11.1203 144.276 12.8727 143.902L62.3949 133.334L12.9147 123.458C11.1575 123.107 10.0174 121.398 10.3681 119.641Z" fill="#180700"/>
<path fill-rule="evenodd" clip-rule="evenodd" d="M269.64 119.641C269.289 117.884 267.58 116.744 265.823 117.095L200.935 130.046C199.425 130.348 198.335 131.668 198.325 133.207C198.315 134.745 199.387 136.08 200.893 136.401L265.781 150.248C267.533 150.622 269.257 149.505 269.631 147.752C270.005 146 268.888 144.276 267.135 143.902L217.613 133.334L267.093 123.458C268.85 123.107 269.99 121.398 269.64 119.641Z" fill="#180700"/>
<path d="M102.836 107.414C102.489 112.334 99.203 115.726 96.1348 115.726C93.0666 115.726 89.8701 112.126 89.4336 107.414C89.4336 102.823 90.5633 99.1016 96.1348 99.1016C101.347 99.1016 102.836 102.823 102.836 107.414Z" fill="#180700"/>
<path d="M182.094 107.414C181.741 112.334 178.391 115.726 175.264 115.726C172.137 115.726 168.878 112.126 168.434 107.414C168.434 102.823 169.585 99.1016 175.264 99.1016C180.576 99.1016 182.094 102.823 182.094 107.414Z" fill="#180700"/>
<path d="M101.55 103.355C101.55 104.28 100.829 105.03 99.939 105.03C99.0493 105.03 98.3281 104.28 98.3281 103.355C98.3281 102.43 99.0493 101.68 99.939 101.68C100.829 101.68 101.55 102.43 101.55 103.355Z" fill="white"/>
<path d="M172.687 103.355C172.687 104.28 171.994 105.03 171.14 105.03C170.286 105.03 169.594 104.28 169.594 103.355C169.594 102.43 170.286 101.68 171.14 101.68C171.994 101.68 172.687 102.43 172.687 103.355Z" fill="white"/>
<path d="M149.877 116.503C149.877 117.429 145.463 118.179 140.019 118.179C134.574 118.179 130.16 117.429 130.16 116.503C130.16 115.578 134.574 114.828 140.019 114.828C145.463 114.828 149.877 115.578 149.877 116.503Z" fill="white"/>
<path d="M62.4457 309.112C52.3528 310.484 55.2609 298.736 53.543 294.227L82.2326 296.289C86.7524 299.354 95.1469 303.756 93.2287 304.959C90.831 306.464 69.1292 308.204 62.4457 309.112Z" fill="#FFEED2"/>
<path d="M214.668 309.112C224.76 310.484 221.852 298.736 223.57 294.227L194.881 296.289C190.361 299.354 181.966 303.756 183.885 304.959C186.282 306.464 207.984 308.204 214.668 309.112Z" fill="#FFEED2"/>
<path d="M19.2149 157.653C19.0133 155.791 20.7881 154.334 22.5744 154.895L139.678 191.68C140.761 192.02 141.497 193.023 141.497 194.158V306.045C141.497 307.807 139.781 309.058 138.104 308.518L33.4462 274.798C32.4705 274.484 31.771 273.625 31.6606 272.605L19.2149 157.653Z" fill="white"/>
<path fill-rule="evenodd" clip-rule="evenodd" d="M25.4073 161.775L37.1224 269.979L135.784 301.766V196.447L25.4073 161.775ZM22.5744 154.895C20.7881 154.334 19.0133 155.791 19.2149 157.653L31.6606 272.605C31.771 273.625 32.4705 274.484 33.4462 274.798L138.104 308.518C139.781 309.058 141.497 307.807 141.497 306.045V194.158C141.497 193.023 140.761 192.02 139.678 191.68L22.5744 154.895Z" fill="#180700"/>
<path d="M260.816 157.653C261.018 155.791 259.243 154.334 257.457 154.895L140.353 191.68C139.271 192.02 138.534 193.023 138.534 194.158V306.045C138.534 307.807 140.25 309.058 141.927 308.518L246.585 274.798C247.561 274.484 248.26 273.625 248.371 272.605L260.816 157.653Z" fill="white"/>
<path fill-rule="evenodd" clip-rule="evenodd" d="M254.624 161.775L242.909 269.979L144.247 301.766V196.447L254.624 161.775ZM257.457 154.895C259.243 154.334 261.018 155.791 260.816 157.653L248.371 272.605C248.26 273.625 247.561 274.484 246.585 274.798L141.927 308.518C140.25 309.058 138.534 307.807 138.534 306.045V194.158C138.534 193.023 139.271 192.02 140.353 191.68L257.457 154.895Z" fill="#180700"/>
<path d="M9.80233 166.678C9.68683 165.612 10.6588 164.752 11.7035 164.995L131.015 192.746C131.721 192.91 132.22 193.539 132.22 194.263V314.174C132.22 315.208 131.229 315.955 130.235 315.67L23.6223 285.222C23.0131 285.048 22.57 284.523 22.5018 283.893L9.80233 166.678Z" fill="white"/>
<path d="M9.80233 166.678C9.68683 165.612 10.6588 164.752 11.7035 164.995L131.015 192.746C131.721 192.91 132.22 193.539 132.22 194.263V314.174C132.22 315.208 131.229 315.955 130.235 315.67L23.6223 285.222C23.0131 285.048 22.57 284.523 22.5018 283.893L9.80233 166.678Z" fill="#FF8900"/>
<path fill-rule="evenodd" clip-rule="evenodd" d="M6.98354 167.004C6.65639 163.985 9.40938 161.546 12.3685 162.234L131.643 189.979C133.64 190.444 135.054 192.224 135.054 194.274V314.153C135.054 317.083 132.249 319.198 129.431 318.393L22.8527 287.953C21.1271 287.46 19.8723 285.971 19.679 284.188L6.98354 167.004ZM12.8555 168.207L25.2602 282.706L129.346 312.434V195.304L12.8555 168.207Z" fill="#180700"/>
<path d="M270.104 166.678C270.219 165.612 269.248 164.752 268.205 164.995L149.018 192.746C148.314 192.91 147.815 193.539 147.815 194.263V314.174C147.815 315.208 148.805 315.955 149.798 315.67L256.299 285.222C256.907 285.048 257.35 284.523 257.418 283.893L270.104 166.678Z" fill="white"/>
<path d="M270.104 166.678C270.219 165.612 269.248 164.752 268.205 164.995L149.018 192.746C148.314 192.91 147.815 193.539 147.815 194.263V314.174C147.815 315.208 148.805 315.955 149.798 315.67L256.299 285.222C256.907 285.048 257.35 284.523 257.418 283.893L270.104 166.678Z" fill="#FF8900"/>
<path fill-rule="evenodd" clip-rule="evenodd" d="M272.923 167.004C273.25 163.985 270.499 161.546 267.543 162.234L148.389 189.979C146.393 190.444 144.981 192.224 144.981 194.274V314.153C144.981 317.083 147.783 319.198 150.598 318.393L257.07 287.953C258.793 287.46 260.047 285.971 260.24 284.188L272.923 167.004ZM267.057 168.207L254.665 282.706L150.684 312.434V195.304L267.057 168.207Z" fill="#180700"/>
<path d="M132.219 193.18L139.219 194.928C139.742 195.059 140.289 195.059 140.811 194.928L147.812 193.18V316.298L142.763 318.544C141.193 319.243 139.402 319.267 137.814 318.61L132.219 316.298V193.18Z" fill="white"/>
<path d="M64.8492 86.9963C72.1683 68.372 114.752 69.1567 125.291 86.3331C125.291 86.3331 130.605 93.6368 124.295 107.471C117.985 121.305 97.0621 131.928 79.5719 121.415C62.0806 110.901 63.6318 90.0946 64.8492 86.9963ZM200.46 121.415C182.969 131.929 162.047 121.305 155.738 107.471C149.427 93.6379 154.74 86.3331 154.74 86.3331C165.301 69.1237 207.879 68.4102 215.183 86.9973C216.401 90.0957 217.951 110.902 200.46 121.415ZM145.442 89.3213C150.202 90.3171 148.431 93.4164 148.431 93.8592C148.431 94.302 150.202 119.977 173.118 126.727C196.032 133.479 209.758 120.198 213.744 113.558C217.729 106.918 221.05 91.0924 222.046 89.8743C223.043 88.6572 227.803 86.5545 227.803 86.5545L228.357 80.3567L222.379 78.5867C222.379 78.5867 207.323 71.7248 185.183 71.3932C163.043 71.0606 150.534 83.7877 150.534 83.7877C144.302 81.7994 136.549 81.5378 129.499 83.7877C129.499 83.7877 116.989 71.0606 94.8487 71.3922C72.7091 71.7237 57.6534 78.5857 57.6534 78.5857L51.6758 80.3557L52.2291 86.5535C52.2291 86.5535 56.9891 88.6561 57.9857 89.8732C58.9814 91.0914 62.3021 106.917 66.2881 113.557C70.2732 120.197 83.9998 133.478 106.914 126.727C129.83 119.977 131.602 94.302 131.602 93.8592C131.602 93.4164 129.83 90.3171 134.59 89.3213C138.728 88.4554 141.308 88.4564 145.442 89.3213Z" fill="#180700"/>
<path fill-rule="evenodd" clip-rule="evenodd" d="M15.4914 223.215C15.1349 221.679 16.0911 220.145 17.6271 219.788C19.7914 219.286 22.6556 219.177 25.6719 219.735C22.6178 216.852 19.4896 215.159 17.7641 214.763C14.1522 214.858 11.2511 216.054 9.27089 217.932C7.26043 219.84 5.71018 222.913 5.71018 227.644C5.71018 232.78 7.30459 235.786 9.2152 237.551C11.1708 239.358 14.1389 240.489 18.0186 240.53C18.0825 240.512 18.1868 240.48 18.3352 240.426C18.7749 240.264 19.392 239.981 20.1565 239.548C20.8936 239.13 21.6949 238.615 22.5199 238.019C20.2078 236.48 17.7802 236.256 16.8012 236.361C15.2335 236.531 13.8253 235.397 13.656 233.829C13.4867 232.262 14.6204 230.853 16.1881 230.684C18.4638 230.438 23.0074 230.966 26.9237 234.178C27.9165 233.13 28.7727 232.06 29.4301 231.027C30.3434 229.591 30.672 228.545 30.742 227.904C26.832 225.072 21.7922 224.684 18.9181 225.351C17.3821 225.707 15.8479 224.751 15.4914 223.215ZM18.2336 209.047C8.16348 209.047 0 215.497 0 227.644C0 240.453 8.16348 246.241 18.2336 246.241C22.7109 246.241 36.4673 236.04 36.4673 227.644C36.4673 220.13 25.0729 210.02 18.2336 209.047Z" fill="#180700"/>
<path fill-rule="evenodd" clip-rule="evenodd" d="M264.567 223.215C264.924 221.679 263.968 220.145 262.432 219.788C260.267 219.286 257.403 219.177 254.387 219.735C257.441 216.852 260.569 215.159 262.294 214.763C265.906 214.858 268.808 216.054 270.788 217.932C272.798 219.84 274.348 222.913 274.348 227.644C274.348 232.78 272.754 235.786 270.843 237.551C268.888 239.358 265.92 240.489 262.04 240.53C261.976 240.512 261.872 240.48 261.723 240.426C261.284 240.264 260.667 239.981 259.902 239.548C259.165 239.13 258.364 238.615 257.539 238.019C259.851 236.48 262.278 236.256 263.257 236.361C264.825 236.531 266.233 235.397 266.403 233.829C266.572 232.262 265.438 230.853 263.871 230.684C261.595 230.438 257.051 230.966 253.135 234.178C252.142 233.13 251.286 232.06 250.629 231.027C249.715 229.591 249.387 228.545 249.317 227.904C253.227 225.072 258.266 224.684 261.141 225.351C262.677 225.707 264.211 224.751 264.567 223.215ZM261.825 209.047C271.895 209.047 280.059 215.497 280.059 227.644C280.059 240.453 271.895 246.241 261.825 246.241C257.348 246.241 243.591 236.04 243.591 227.644C243.591 220.13 254.986 210.02 261.825 209.047Z" fill="#180700"/>
<path fill-rule="evenodd" clip-rule="evenodd" d="M227.715 91.7266C231.008 101.118 233.211 111.752 234.025 123.12C225.286 121.872 218.621 117.208 218.621 107.845C218.621 102.201 222.414 96.0359 227.715 91.7266Z" fill="#FF8900"/>
<path fill-rule="evenodd" clip-rule="evenodd" d="M52.3042 91.7266C49.0114 101.118 46.8087 111.752 45.9948 123.12C54.7338 121.872 61.3984 117.208 61.3984 107.845C61.3984 102.201 57.6059 96.0359 52.3042 91.7266Z" fill="#FF8900"/>
<path fill-rule="evenodd" clip-rule="evenodd" d="M155.102 45.1373C145.234 43.8424 134.374 43.8698 123.081 45.4069C126.095 53.7042 132.029 59.2698 141.193 57.3478C146.717 56.1893 151.973 51.2113 155.102 45.1373Z" fill="#FF8900"/>
<path d="M135.055 195.367H144.849V317.021H135.055V195.367Z" fill="#FF8900"/>
<path fill-rule="evenodd" clip-rule="evenodd" d="M147.812 193.18L140.811 194.928C140.289 195.059 139.742 195.059 139.219 194.928L132.219 193.18V316.298L137.814 318.61C139.402 319.267 141.193 319.243 142.763 318.544L147.812 316.298V193.18ZM144.677 197.175L141.576 197.95C140.551 198.206 139.479 198.206 138.455 197.95L135.354 197.175V314.22L139.018 315.733C139.809 316.06 140.7 316.048 141.482 315.701L144.677 314.279V197.175Z" fill="#180700"/>
<path fill-rule="evenodd" clip-rule="evenodd" d="M46.4394 306.657C46.6288 307.176 46.3618 307.75 45.843 307.94C44.9909 308.251 43.5629 308.483 42.2234 308.651C40.8481 308.823 39.4429 308.942 38.5644 308.998C38.0132 309.034 37.5377 308.616 37.5022 308.065C37.4667 307.513 37.8847 307.038 38.4358 307.002C39.2819 306.948 40.6463 306.833 41.9746 306.666C43.3387 306.495 44.5484 306.283 45.1571 306.061C45.6759 305.872 46.25 306.139 46.4394 306.657Z" fill="#180700"/>
<path fill-rule="evenodd" clip-rule="evenodd" d="M40.9564 298.708C41.1178 299.236 40.8205 299.795 40.2923 299.957C38.8777 300.389 35.5415 300.83 34.1139 300.994C33.5652 301.057 33.0695 300.663 33.0066 300.114C32.9437 299.565 33.3376 299.07 33.8863 299.007C35.3678 298.837 38.5043 298.412 39.7079 298.044C40.2361 297.883 40.7951 298.18 40.9564 298.708Z" fill="#180700"/>
<path fill-rule="evenodd" clip-rule="evenodd" d="M230.061 306.657C229.871 307.176 230.138 307.75 230.657 307.94C231.509 308.251 232.937 308.483 234.277 308.651C235.652 308.823 237.057 308.942 237.936 308.998C238.487 309.034 238.963 308.616 238.998 308.065C239.034 307.513 238.616 307.038 238.064 307.002C237.218 306.948 235.854 306.833 234.526 306.666C233.161 306.495 231.952 306.283 231.343 306.061C230.824 305.872 230.25 306.139 230.061 306.657Z" fill="#180700"/>
<path fill-rule="evenodd" clip-rule="evenodd" d="M235.544 298.708C235.382 299.236 235.68 299.795 236.208 299.957C237.622 300.389 240.959 300.83 242.386 300.994C242.935 301.057 243.431 300.663 243.494 300.114C243.556 299.565 243.163 299.07 242.614 299.007C241.132 298.837 237.996 298.412 236.792 298.044C236.264 297.883 235.705 298.18 235.544 298.708Z" fill="#180700"/>
</svg>
