<svg width="290" height="340" viewBox="0 0 290 340" fill="none" xmlns="http://www.w3.org/2000/svg">
<path fill-rule="evenodd" clip-rule="evenodd" d="M230.054 303.239L205.491 306.702C200.294 307.5 196.34 313.407 196.891 321.281C197.147 324.948 198.437 328.284 200.548 330.623C202.559 332.852 205.571 334.476 210.076 334.476C225.683 334.476 242.706 329.625 256.603 321.409C270.576 313.148 280.673 301.938 283.684 289.671C286.697 277.4 283.087 267.341 275.036 260.284C266.771 253.04 253.339 248.586 236.392 249.213C229.681 249.461 224.023 250.568 219.877 252C217.876 252.69 216.314 253.427 215.186 254.118C217.723 254.923 222.196 255.612 229.265 255.612M213.125 253.183C213.125 253.182 213.127 253.184 213.129 253.186C213.127 253.184 213.125 253.183 213.125 253.183ZM204.738 301.564C186.574 304.302 186.374 339.668 210.076 339.668C243.263 339.668 281.799 319.147 288.731 290.908C295.664 262.669 271.925 242.702 236.2 244.024C207.619 245.081 194.57 260.804 229.267 260.804C238.42 260.801 260.152 265.985 261.533 276.252C263.259 289.086 247.704 295.062 229.267 298.106L204.738 301.564ZM229.267 255.612C234.537 255.61 242.885 257.043 250.17 259.827C253.833 261.226 257.517 263.075 260.474 265.478C263.41 267.864 266.095 271.191 266.683 275.56C267.272 279.943 266.377 283.941 264.223 287.398C262.133 290.752 259.029 293.328 255.576 295.337C248.755 299.307 239.489 301.681 230.115 303.229L230.054 303.239" fill="#180700"/>
<path d="M235.632 276.858C235.632 287.125 187.19 295.448 127.435 295.448C67.6786 295.448 19.2368 287.125 19.2368 276.858C19.2368 266.591 67.6786 258.268 127.435 258.268C187.19 258.268 235.632 266.591 235.632 276.858Z" fill="#180700"/>
<path d="M27.5651 274.757C26.5489 266.391 32.5071 258.786 40.873 257.769L95.4901 251.135C103.856 250.119 111.462 256.077 112.478 264.443V264.443C113.494 272.809 107.536 280.415 99.1701 281.431L44.553 288.065C36.187 289.081 28.5813 283.123 27.5651 274.757V274.757Z" fill="white"/>
<path fill-rule="evenodd" clip-rule="evenodd" d="M96.1168 256.294L41.4997 262.928C35.983 263.599 32.054 268.614 32.7241 274.131C33.3942 279.647 38.4096 283.576 43.9263 282.906L98.5434 276.272C104.06 275.602 107.989 270.587 107.319 265.07C106.649 259.553 101.633 255.624 96.1168 256.294ZM40.873 257.769C32.5071 258.786 26.5489 266.391 27.5651 274.757C28.5813 283.123 36.187 289.081 44.553 288.065L99.1701 281.431C107.536 280.415 113.494 272.809 112.478 264.443C111.462 256.077 103.856 250.119 95.4901 251.135L40.873 257.769Z" fill="#180700"/>
<path d="M224.663 274.757C225.679 266.391 219.721 258.786 211.355 257.769L156.738 251.135C148.372 250.119 140.766 256.077 139.75 264.443V264.443C138.734 272.809 144.692 280.415 153.058 281.431L207.675 288.065C216.041 289.081 223.647 283.123 224.663 274.757V274.757Z" fill="white"/>
<path fill-rule="evenodd" clip-rule="evenodd" d="M156.111 256.294L210.728 262.928C216.245 263.599 220.174 268.614 219.504 274.131C218.834 279.647 213.818 283.576 208.302 282.906L153.685 276.272C148.168 275.602 144.239 270.587 144.909 265.07C145.579 259.553 150.595 255.624 156.111 256.294ZM211.355 257.769C219.721 258.786 225.679 266.391 224.663 274.757C223.647 283.123 216.041 289.081 207.675 288.065L153.058 281.431C144.692 280.415 138.734 272.809 139.75 264.443C140.766 256.077 148.372 250.119 156.738 251.135L211.355 257.769Z" fill="#180700"/>
<path fill-rule="evenodd" clip-rule="evenodd" d="M213.673 210.883C219.102 191.044 222.024 169.971 222.024 148.131C222.024 117.647 216.33 88.6561 206.074 62.4287C206.067 62.4107 206.054 62.3953 206.038 62.3847C206.021 62.3738 206.008 62.3576 206.001 62.3387C197.038 37.8239 183 16.6485 165.506 0.775807C163.702 -0.860993 160.866 0.244665 160.604 2.66724C159.661 11.3627 159.174 20.2398 159.174 29.2593C159.174 31.3661 159.201 33.4652 159.254 35.556C159.31 37.7877 157.081 39.3951 154.955 38.7201C146.676 36.0922 137.327 34.6128 127.431 34.6128C117.536 34.6128 108.187 36.0921 99.9078 38.7201C97.7813 39.3951 95.5524 37.7877 95.6087 35.556C95.6614 33.466 95.6879 31.3677 95.6879 29.2616C95.6879 20.2421 95.2011 11.3651 94.2586 2.66958C93.996 0.247002 91.1607 -0.858653 89.3567 0.778146C71.8625 16.6509 57.8248 37.8262 48.8612 62.341C48.8543 62.3599 48.8414 62.3761 48.8245 62.3871C48.8082 62.3976 48.7957 62.413 48.7886 62.4311C38.5319 88.6585 32.8389 117.649 32.8389 148.133C32.8389 169.972 35.7606 191.044 41.1889 210.883H213.673Z" fill="white"/>
<path fill-rule="evenodd" clip-rule="evenodd" d="M206.074 62.4287C216.33 88.6561 222.024 117.647 222.024 148.131C222.024 169.971 219.102 191.044 213.673 210.883H41.1889C35.7606 191.044 32.8389 169.972 32.8389 148.133C32.8389 117.649 38.5319 88.6585 48.7886 62.4311C48.7957 62.413 48.8082 62.3976 48.8245 62.3871C48.8414 62.3761 48.8543 62.3599 48.8612 62.341C57.8248 37.8262 71.8625 16.6509 89.3567 0.778146C91.1607 -0.858653 93.996 0.247003 94.2586 2.66958C95.2011 11.3651 95.6879 20.2421 95.6879 29.2616C95.6879 31.3677 95.6614 33.466 95.6087 35.556C95.5524 37.7877 97.7813 39.3951 99.9078 38.7201C108.187 36.0921 117.536 34.6128 127.431 34.6128C137.327 34.6128 146.676 36.0922 154.955 38.7201C157.081 39.3951 159.31 37.7877 159.254 35.556C159.201 33.4652 159.174 31.3661 159.174 29.2593C159.174 20.2398 159.661 11.3627 160.604 2.66724C160.866 0.244665 163.702 -0.860993 165.506 0.775807C183 16.6485 197.038 37.8239 206.001 62.3387C206.008 62.3576 206.021 62.3738 206.038 62.3847C206.054 62.3953 206.067 62.4107 206.074 62.4287ZM201.416 64.7821C211.324 90.286 216.829 118.474 216.829 148.131C216.829 168.106 214.332 187.415 209.674 205.685H45.1879C40.5303 187.416 38.033 168.108 38.033 148.133C38.033 118.476 43.5383 90.2884 53.4466 64.7844C53.5585 64.5729 53.6564 64.3532 53.7391 64.1268C61.86 41.9167 74.2419 22.6199 89.5398 7.73528C90.17 14.7997 90.4938 21.9823 90.4938 29.2616C90.4938 31.324 90.4678 33.3786 90.4162 35.4249C90.2659 41.3877 96.1054 45.3799 101.478 43.6744C109.228 41.2147 118.045 39.8104 127.431 39.8104C136.817 39.8104 145.635 41.2147 153.384 43.6744C158.757 45.3799 164.597 41.3877 164.446 35.4249C164.395 33.3778 164.369 31.3224 164.369 29.2593C164.369 21.98 164.692 14.7974 165.323 7.73294C180.62 22.6173 193.002 41.9137 201.123 64.1233C201.206 64.3502 201.304 64.5702 201.416 64.7821ZM53.6256 64.3253C53.6252 64.3262 53.6249 64.327 53.6246 64.3279C53.6249 64.327 53.6252 64.3261 53.6256 64.3253ZM51.6514 66.7475C51.6566 66.7441 51.6619 66.7407 51.6672 66.7372C51.6619 66.7407 51.6566 66.7441 51.6514 66.7475Z" fill="#180700"/>
<path fill-rule="evenodd" clip-rule="evenodd" d="M206.074 62.4287C216.33 88.6561 222.024 117.647 222.024 148.131C222.024 169.971 219.102 191.044 213.673 210.883H41.1889C35.7606 191.044 32.8389 169.972 32.8389 148.133C32.8389 117.649 38.5319 88.6585 48.7886 62.4311C48.7957 62.413 48.8082 62.3976 48.8245 62.3871C48.8414 62.3761 48.8543 62.3599 48.8612 62.341C57.8248 37.8262 71.8625 16.6509 89.3567 0.778146C91.1607 -0.858653 93.996 0.247003 94.2586 2.66958C95.2011 11.3651 95.6879 20.2421 95.6879 29.2616C95.6879 31.3677 95.6614 33.466 95.6087 35.556C95.5524 37.7877 97.7813 39.3951 99.9078 38.7201C108.187 36.0921 117.536 34.6128 127.431 34.6128C137.327 34.6128 146.676 36.0922 154.955 38.7201C157.081 39.3951 159.31 37.7877 159.254 35.556C159.201 33.4652 159.174 31.3661 159.174 29.2593C159.174 20.2398 159.661 11.3627 160.604 2.66724C160.866 0.244665 163.702 -0.860993 165.506 0.775807C183 16.6485 197.038 37.8239 206.001 62.3387C206.008 62.3576 206.021 62.3738 206.038 62.3847C206.054 62.3953 206.067 62.4107 206.074 62.4287ZM201.416 64.7821C211.324 90.286 216.829 118.474 216.829 148.131C216.829 168.106 214.332 187.415 209.674 205.685H45.1879C40.5303 187.416 38.033 168.108 38.033 148.133C38.033 118.476 43.5383 90.2884 53.4466 64.7844C53.5585 64.5729 53.6564 64.3532 53.7391 64.1268C61.86 41.9167 74.2419 22.6199 89.5398 7.73528C90.17 14.7997 90.4938 21.9823 90.4938 29.2616C90.4938 31.324 90.4678 33.3786 90.4162 35.4249C90.2659 41.3877 96.1054 45.3799 101.478 43.6744C109.228 41.2147 118.045 39.8104 127.431 39.8104C136.817 39.8104 145.635 41.2147 153.384 43.6744C158.757 45.3799 164.597 41.3877 164.446 35.4249C164.395 33.3778 164.369 31.3224 164.369 29.2593C164.369 21.98 164.692 14.7974 165.323 7.73294C180.62 22.6173 193.002 41.9137 201.123 64.1233C201.206 64.3502 201.304 64.5702 201.416 64.7821ZM53.6256 64.3253C53.6252 64.3262 53.6249 64.327 53.6246 64.3279C53.6249 64.327 53.6252 64.3261 53.6256 64.3253ZM51.6514 66.7475C51.6566 66.7441 51.6619 66.7407 51.6672 66.7372C51.6619 66.7407 51.6566 66.7441 51.6514 66.7475Z" fill="#180700"/>
<path fill-rule="evenodd" clip-rule="evenodd" d="M157.864 185.343C138.962 186.026 118.417 184.03 97.3248 179.1C104.515 163.94 116.739 154.472 133.734 159.75C143.977 162.931 153.03 173.29 157.864 185.343Z" fill="#FFEED2"/>
<path d="M68.9893 49.9162C68.8714 49.8602 68.8087 49.7292 68.8392 49.6023C71.4232 38.8807 76.542 29.1051 83.5492 20.9026C84.2253 20.1111 85.4804 20.5581 85.5055 21.5988C85.6242 26.5208 85.3489 33.0322 84.0329 39.7679C81.8821 50.7767 73.1483 51.1331 69.0294 49.9316C69.0155 49.9275 69.0024 49.9224 68.9893 49.9162V49.9162Z" fill="#180700"/>
<path d="M185.841 49.9162C185.959 49.8602 186.022 49.7292 185.991 49.6023C183.407 38.8807 178.289 29.1051 171.281 20.9026C170.605 20.1111 169.35 20.5581 169.325 21.5988C169.206 26.5208 169.482 33.0322 170.798 39.7679C172.948 50.7767 181.682 51.1331 185.801 49.9316C185.815 49.9275 185.828 49.9224 185.841 49.9162V49.9162Z" fill="#180700"/>
<path fill-rule="evenodd" clip-rule="evenodd" d="M123.902 121.082C123.809 121.031 123.718 120.977 123.627 120.921C119.105 118.126 115.419 114.306 112.977 109.83C111.129 106.444 112.904 102.338 116.584 101.178C119.87 100.143 123.401 99.5801 127.077 99.5801C130.744 99.5801 134.266 100.14 137.546 101.171C141.228 102.328 143.005 106.434 141.158 109.822C138.758 114.224 135.155 117.992 130.737 120.775C131.277 122.321 131.948 123.698 132.706 124.865C134.732 127.986 136.976 129.101 138.755 129.101C140.533 129.101 142.777 127.986 144.803 124.865C145.632 123.588 146.356 122.061 146.92 120.336C147.266 119.279 148.221 118.512 149.334 118.512C150.857 118.512 152.004 119.912 151.555 121.367C149.281 128.735 144.404 133.828 138.755 133.828C134.092 133.828 129.956 130.359 127.375 125.005C124.793 130.359 120.657 133.828 115.995 133.828C110.346 133.828 105.469 128.735 103.195 121.367C102.746 119.912 103.893 118.512 105.416 118.512C106.529 118.512 107.484 119.279 107.829 120.336C108.393 122.061 109.117 123.588 109.946 124.865C111.973 127.986 114.217 129.101 115.995 129.101C117.773 129.101 120.017 127.986 122.044 124.865C122.751 123.776 123.382 122.504 123.902 121.082Z" fill="#180700"/>
<path fill-rule="evenodd" clip-rule="evenodd" d="M9.43615 108.888C9.75536 107.289 11.3106 106.251 12.9098 106.57L71.9661 118.358C73.3396 118.632 74.3316 119.834 74.3408 121.234C74.3501 122.635 73.3741 123.849 72.0044 124.141L12.9481 136.744C11.3532 137.084 9.7844 136.067 9.44405 134.473C9.1037 132.878 10.1207 131.309 11.7156 130.969L56.7867 121.35L11.7539 112.362C10.1546 112.043 9.11694 110.487 9.43615 108.888Z" fill="#180700"/>
<path fill-rule="evenodd" clip-rule="evenodd" d="M245.405 108.888C245.085 107.289 243.53 106.251 241.931 106.57L182.875 118.358C181.501 118.632 180.509 119.834 180.5 121.234C180.491 122.635 181.467 123.849 182.836 124.141L241.893 136.744C243.488 137.084 245.056 136.067 245.397 134.473C245.737 132.878 244.72 131.309 243.125 130.969L198.054 121.35L243.087 112.362C244.686 112.043 245.724 110.487 245.405 108.888Z" fill="#180700"/>
<path d="M93.5934 97.7594C93.2779 102.237 90.2869 105.324 87.4945 105.324C84.702 105.324 81.7928 102.049 81.3955 97.7594C81.3955 93.5813 82.4237 90.1943 87.4945 90.1943C92.2381 90.1943 93.5934 93.5813 93.5934 97.7594Z" fill="#180700"/>
<path d="M165.727 97.7594C165.406 102.237 162.357 105.324 159.511 105.324C156.665 105.324 153.7 102.049 153.295 97.7594C153.295 93.5813 154.343 90.1943 159.511 90.1943C164.346 90.1943 165.727 93.5813 165.727 97.7594Z" fill="#180700"/>
<path d="M92.4224 94.0658C92.4224 94.9078 91.766 95.5905 90.9563 95.5905C90.1466 95.5905 89.4902 94.9078 89.4902 94.0658C89.4902 93.2237 90.1466 92.541 90.9563 92.541C91.766 92.541 92.4224 93.2237 92.4224 94.0658Z" fill="white"/>
<path d="M157.165 94.0658C157.165 94.9078 156.535 95.5905 155.758 95.5905C154.981 95.5905 154.351 94.9078 154.351 94.0658C154.351 93.2237 154.981 92.541 155.758 92.541C156.535 92.541 157.165 93.2237 157.165 94.0658Z" fill="white"/>
<path d="M136.406 106.033C136.406 106.875 132.389 107.557 127.434 107.557C122.479 107.557 118.461 106.875 118.461 106.033C118.461 105.19 122.479 104.508 127.434 104.508C132.389 104.508 136.406 105.19 136.406 106.033Z" fill="white"/>
<path d="M56.833 281.329C47.6473 282.577 50.294 271.885 48.7305 267.781L74.8415 269.658C78.955 272.448 86.595 276.454 84.8493 277.549C82.6671 278.918 62.9158 280.502 56.833 281.329Z" fill="#FFEED2"/>
<path d="M195.373 281.329C204.559 282.577 201.912 271.885 203.476 267.781L177.365 269.658C173.251 272.448 165.611 276.454 167.357 277.549C169.539 278.918 189.29 280.502 195.373 281.329Z" fill="#FFEED2"/>
<path d="M17.4879 143.483C17.3044 141.789 18.9197 140.462 20.5455 140.973L127.124 174.452C128.109 174.761 128.779 175.674 128.779 176.707V278.538C128.779 280.141 127.217 281.28 125.692 280.788L30.4401 250.099C29.5521 249.813 28.9155 249.031 28.815 248.104L17.4879 143.483Z" fill="white"/>
<path fill-rule="evenodd" clip-rule="evenodd" d="M23.1237 147.235L33.7859 245.713L123.58 274.643V178.79L23.1237 147.235ZM20.5455 140.973C18.9197 140.462 17.3044 141.789 17.4879 143.483L28.815 248.104C28.9155 249.031 29.5521 249.813 30.4401 250.099L125.692 280.788C127.217 281.28 128.779 280.141 128.779 278.538V176.707C128.779 175.674 128.109 174.761 127.124 174.452L20.5455 140.973Z" fill="#180700"/>
<path d="M237.374 143.483C237.558 141.789 235.943 140.462 234.317 140.973L127.738 174.452C126.753 174.761 126.083 175.674 126.083 176.707V278.538C126.083 280.141 127.645 281.28 129.171 280.788L224.422 250.099C225.31 249.813 225.947 249.031 226.047 248.104L237.374 143.483Z" fill="white"/>
<path fill-rule="evenodd" clip-rule="evenodd" d="M231.739 147.235L221.076 245.713L131.282 274.643V178.79L231.739 147.235ZM234.317 140.973C235.943 140.462 237.558 141.789 237.374 143.483L226.047 248.104C225.947 249.031 225.31 249.813 224.422 250.099L129.171 280.788C127.645 281.28 126.083 280.141 126.083 278.538V176.707C126.083 175.674 126.753 174.761 127.738 174.452L234.317 140.973Z" fill="#180700"/>
<path d="M8.92112 151.697C8.816 150.727 9.70059 149.943 10.6514 150.165L119.24 175.422C119.881 175.571 120.336 176.143 120.336 176.802V285.936C120.336 286.877 119.434 287.557 118.529 287.298L21.4989 259.586C20.9445 259.428 20.5413 258.95 20.4792 258.376L8.92112 151.697Z" fill="white"/>
<path d="M8.92112 151.697C8.816 150.727 9.70059 149.943 10.6514 150.165L119.24 175.422C119.881 175.571 120.336 176.143 120.336 176.802V285.936C120.336 286.877 119.434 287.557 118.529 287.298L21.4989 259.586C20.9445 259.428 20.5413 258.95 20.4792 258.376L8.92112 151.697Z" fill="#FF8900"/>
<path fill-rule="evenodd" clip-rule="evenodd" d="M6.35567 151.994C6.05792 149.246 8.56348 147.026 11.2566 147.653L119.811 172.903C121.629 173.326 122.915 174.946 122.915 176.813V285.917C122.915 288.583 120.362 290.508 117.798 289.776L20.7985 262.072C19.228 261.623 18.086 260.268 17.9101 258.645L6.35567 151.994ZM11.6999 153.088L22.9896 257.296L117.72 284.352V177.75L11.6999 153.088Z" fill="#180700"/>
<path d="M245.827 151.697C245.932 150.727 245.048 149.943 244.098 150.165L135.625 175.422C134.983 175.571 134.53 176.143 134.53 176.802V285.936C134.53 286.877 135.43 287.557 136.334 287.298L233.262 259.586C233.816 259.428 234.219 258.95 234.281 258.376L245.827 151.697Z" fill="white"/>
<path d="M245.827 151.697C245.932 150.727 245.048 149.943 244.098 150.165L135.625 175.422C134.983 175.571 134.53 176.143 134.53 176.802V285.936C134.53 286.877 135.43 287.557 136.334 287.298L233.262 259.586C233.816 259.428 234.219 258.95 234.281 258.376L245.827 151.697Z" fill="#FF8900"/>
<path fill-rule="evenodd" clip-rule="evenodd" d="M248.392 151.994C248.69 149.246 246.187 147.026 243.496 147.653L135.052 172.903C133.235 173.326 131.95 174.946 131.95 176.813V285.917C131.95 288.583 134.5 290.508 137.062 289.776L233.964 262.072C235.533 261.623 236.674 260.268 236.85 258.645L248.392 151.994ZM243.054 153.088L231.775 257.296L137.14 284.352V177.75L243.054 153.088Z" fill="#180700"/>
<path d="M120.335 175.816L126.706 177.408C127.182 177.526 127.68 177.526 128.155 177.408L134.527 175.816V287.869L129.931 289.913C128.502 290.549 126.873 290.571 125.427 289.973L120.335 287.869V175.816Z" fill="white"/>
<path d="M59.0207 78.9218C65.6819 62.0054 104.438 62.7181 114.03 78.3195C114.03 78.3195 118.866 84.9535 113.124 97.5189C107.381 110.084 88.3383 119.734 72.4201 110.184C56.5009 100.634 57.9127 81.7361 59.0207 78.9218ZM182.442 110.184C166.524 119.735 147.483 110.084 141.74 97.5189C135.996 84.9544 140.833 78.3195 140.833 78.3195C150.444 62.6882 189.195 62.0401 195.843 78.9228C196.951 81.737 198.362 100.635 182.442 110.184ZM132.37 81.0337C136.702 81.9381 135.09 84.7533 135.09 85.1554C135.09 85.5576 136.702 108.878 157.558 115.01C178.413 121.142 190.905 109.079 194.533 103.048C198.16 97.0167 201.182 82.6424 202.089 81.5359C202.996 80.4304 207.328 78.5206 207.328 78.5206L207.832 72.8911L202.392 71.2834C202.392 71.2834 188.689 65.0507 168.539 64.7496C148.389 64.4475 137.004 76.0075 137.004 76.0075C131.332 74.2015 124.276 73.9639 117.859 76.0075C117.859 76.0075 106.474 64.4475 86.3238 64.7486C66.1741 65.0498 52.4716 71.2825 52.4716 71.2825L47.0312 72.8902L47.5348 78.5197C47.5348 78.5197 51.867 80.4295 52.774 81.535C53.6802 82.6414 56.7025 97.0157 60.3303 103.047C63.9571 109.078 76.45 121.141 97.3047 115.01C118.161 108.878 119.774 85.5576 119.774 85.1554C119.774 84.7533 118.161 81.9381 122.493 81.0337C126.26 80.2471 128.608 80.248 132.37 81.0337Z" fill="#180700"/>
<path fill-rule="evenodd" clip-rule="evenodd" d="M14.099 203.153C13.7746 201.755 14.6448 200.358 16.0428 200.034C18.0125 199.577 20.6193 199.478 23.3645 199.986C20.5849 197.361 17.7379 195.821 16.1675 195.46C12.8802 195.547 10.2398 196.635 8.43762 198.345C6.60787 200.081 5.19695 202.877 5.19695 207.183C5.19695 211.858 6.64806 214.594 8.38694 216.2C10.1668 217.844 12.8681 218.874 16.3991 218.911C16.4572 218.895 16.5522 218.866 16.6872 218.816C17.0875 218.669 17.6491 218.412 18.3449 218.017C19.0157 217.637 19.745 217.168 20.4958 216.626C18.3916 215.225 16.1821 215.021 15.2911 215.117C13.8643 215.271 12.5827 214.24 12.4286 212.813C12.2746 211.386 13.3063 210.104 14.7331 209.95C16.8043 209.727 20.9395 210.207 24.5038 213.13C25.4073 212.176 26.1867 211.203 26.7849 210.262C27.6161 208.956 27.9152 208.004 27.9789 207.42C24.4204 204.843 19.8335 204.489 17.2177 205.096C15.8198 205.421 14.4235 204.551 14.099 203.153ZM16.5948 190.258C7.42975 190.258 0 196.128 0 207.183C0 218.841 7.42975 224.109 16.5948 224.109C20.6697 224.109 33.1896 214.825 33.1896 207.183C33.1896 200.345 22.8193 191.144 16.5948 190.258Z" fill="#180700"/>
<path fill-rule="evenodd" clip-rule="evenodd" d="M240.788 203.153C241.113 201.755 240.242 200.358 238.844 200.034C236.875 199.577 234.268 199.478 231.523 199.986C234.302 197.361 237.149 195.821 238.72 195.46C242.007 195.547 244.647 196.635 246.45 198.345C248.279 200.081 249.69 202.877 249.69 207.183C249.69 211.858 248.239 214.594 246.5 216.2C244.72 217.844 242.019 218.874 238.488 218.911C238.43 218.895 238.335 218.866 238.2 218.816C237.8 218.669 237.238 218.412 236.542 218.017C235.872 217.637 235.142 217.168 234.391 216.626C236.496 215.225 238.705 215.021 239.596 215.117C241.023 215.271 242.304 214.24 242.459 212.813C242.613 211.386 241.581 210.104 240.154 209.95C238.083 209.727 233.948 210.207 230.383 213.13C229.48 212.176 228.701 211.203 228.102 210.262C227.271 208.956 226.972 208.004 226.908 207.42C230.467 204.843 235.054 204.489 237.669 205.096C239.067 205.421 240.464 204.551 240.788 203.153ZM238.292 190.258C247.457 190.258 254.887 196.128 254.887 207.183C254.887 218.841 247.457 224.109 238.292 224.109C234.218 224.109 221.698 214.825 221.698 207.183C221.698 200.345 232.068 191.144 238.292 190.258Z" fill="#180700"/>
<path fill-rule="evenodd" clip-rule="evenodd" d="M207.249 83.4824C210.245 92.0294 212.25 101.708 212.991 112.054C205.037 110.919 198.972 106.673 198.972 98.1517C198.972 93.0156 202.423 87.4044 207.249 83.4824Z" fill="#FF8900"/>
<path fill-rule="evenodd" clip-rule="evenodd" d="M47.603 83.4824C44.6062 92.0294 42.6015 101.708 41.8608 112.054C49.8143 110.919 55.8799 106.673 55.8799 98.1517C55.8799 93.0156 52.4282 87.4044 47.603 83.4824Z" fill="#FF8900"/>
<path fill-rule="evenodd" clip-rule="evenodd" d="M141.161 41.0799C132.181 39.9015 122.296 39.9263 112.018 41.3253C114.762 48.8769 120.162 53.9423 128.503 52.193C133.53 51.1386 138.313 46.608 141.161 41.0799Z" fill="#FF8900"/>
<path d="M244.149 327.178C246.624 308.975 234.637 304.821 227.035 304.926C227.017 304.926 227.007 304.946 227.016 304.962C233.5 315.713 227.426 328.268 221.213 333.524C221.194 333.54 221.213 333.57 221.237 333.564C229.59 331.596 233.145 331.321 244.134 327.198C244.142 327.195 244.148 327.187 244.149 327.178Z" fill="#FF8900"/>
<path d="M260.357 318.65C267.343 307.699 262.826 297.55 259.694 293.845C269.121 291.922 275.39 298.544 277.345 302.096C275.265 305.94 268.435 312.662 260.357 318.65Z" fill="#FF8900"/>
<path d="M277.799 272.129L279.497 266.359C282.059 268.592 283.248 273.05 283.823 279.241C284.037 280.117 284.125 281.063 284.039 282.076C283.979 281.095 283.908 280.149 283.823 279.241C282.902 275.466 279.64 273.001 277.799 272.129Z" fill="#FF8900"/>
<path d="M122.916 177.808H131.83V288.527H122.916V177.808Z" fill="#FF8900"/>
<path fill-rule="evenodd" clip-rule="evenodd" d="M134.527 175.816L128.155 177.408C127.68 177.526 127.182 177.526 126.706 177.408L120.335 175.816V287.869L125.427 289.973C126.873 290.571 128.502 290.549 129.931 289.913L134.527 287.869V175.816ZM131.673 179.453L128.851 180.158C127.919 180.391 126.943 180.391 126.011 180.158L123.189 179.453V285.977L126.523 287.355C127.243 287.652 128.054 287.642 128.766 287.325L131.673 286.032V179.453Z" fill="#180700"/>
<path fill-rule="evenodd" clip-rule="evenodd" d="M42.2658 279.095C42.4382 279.567 42.1952 280.09 41.723 280.262C40.9474 280.546 39.6478 280.757 38.4287 280.91C37.177 281.067 35.8981 281.174 35.0985 281.226C34.5969 281.258 34.1641 280.878 34.1318 280.376C34.0995 279.874 34.4799 279.442 34.9815 279.409C35.7516 279.36 36.9934 279.255 38.2023 279.104C39.4438 278.948 40.5448 278.755 41.0988 278.553C41.5709 278.38 42.0934 278.623 42.2658 279.095Z" fill="#180700"/>
<path fill-rule="evenodd" clip-rule="evenodd" d="M37.2755 271.86C37.4224 272.341 37.1518 272.85 36.6711 272.997C35.3836 273.39 32.3472 273.792 31.048 273.941C30.5486 273.998 30.0974 273.639 30.0402 273.14C29.983 272.641 30.3414 272.189 30.8408 272.132C32.1892 271.978 35.0437 271.591 36.1392 271.256C36.6199 271.109 37.1286 271.38 37.2755 271.86Z" fill="#180700"/>
<path fill-rule="evenodd" clip-rule="evenodd" d="M209.383 279.095C209.211 279.567 209.454 280.09 209.926 280.262C210.701 280.546 212.001 280.757 213.22 280.91C214.472 281.067 215.751 281.174 216.55 281.226C217.052 281.258 217.485 280.878 217.517 280.376C217.549 279.874 217.169 279.442 216.667 279.409C215.897 279.36 214.656 279.255 213.447 279.104C212.205 278.948 211.104 278.755 210.55 278.553C210.078 278.38 209.555 278.623 209.383 279.095Z" fill="#180700"/>
<path fill-rule="evenodd" clip-rule="evenodd" d="M214.373 271.86C214.227 272.341 214.497 272.85 214.978 272.997C216.265 273.39 219.302 273.792 220.601 273.941C221.1 273.998 221.552 273.639 221.609 273.14C221.666 272.641 221.308 272.189 220.808 272.132C219.46 271.978 216.605 271.591 215.51 271.256C215.029 271.109 214.52 271.38 214.373 271.86Z" fill="#180700"/>
</svg>
